<mxfile host="app.diagrams.net" modified="2022-06-17T14:36:36.241Z" agent="5.0 (X11; Linux x86_64) AppleWebKit/537.36 (KHTML, like Gecko) Chrome/102.0.5005.99 Safari/537.36" etag="CYEUWNgpzsXDqOJdQoyf" version="20.0.1" type="github">
  <diagram id="pcmJtE0Vur-31GquO9H1" name="Page-1">
    <mxGraphModel dx="1905" dy="1113" grid="1" gridSize="10" guides="1" tooltips="1" connect="1" arrows="1" fold="1" page="1" pageScale="1" pageWidth="850" pageHeight="1100" math="0" shadow="0">
      <root>
        <mxCell id="0" />
        <mxCell id="1" parent="0" />
        <mxCell id="cW1qeq2i-bKWI04GRKtv-29" value="" style="rounded=1;whiteSpace=wrap;html=1;fontSize=20;fillColor=#f5f5f5;fontColor=#333333;strokeColor=#666666;" vertex="1" parent="1">
          <mxGeometry x="130" y="110" width="560" height="360" as="geometry" />
        </mxCell>
        <mxCell id="cW1qeq2i-bKWI04GRKtv-12" style="edgeStyle=orthogonalEdgeStyle;rounded=0;orthogonalLoop=1;jettySize=auto;html=1;fontSize=20;" edge="1" parent="1" source="cW1qeq2i-bKWI04GRKtv-3" target="cW1qeq2i-bKWI04GRKtv-4">
          <mxGeometry relative="1" as="geometry" />
        </mxCell>
        <mxCell id="cW1qeq2i-bKWI04GRKtv-3" value="&lt;font style=&quot;font-size: 20px;&quot;&gt;conv2D_1x1&lt;/font&gt;" style="rounded=1;whiteSpace=wrap;html=1;fillColor=#fff2cc;strokeColor=#d6b656;" vertex="1" parent="1">
          <mxGeometry x="140" y="180" width="120" height="60" as="geometry" />
        </mxCell>
        <mxCell id="cW1qeq2i-bKWI04GRKtv-13" style="edgeStyle=orthogonalEdgeStyle;rounded=0;orthogonalLoop=1;jettySize=auto;html=1;fontSize=20;" edge="1" parent="1" source="cW1qeq2i-bKWI04GRKtv-4" target="cW1qeq2i-bKWI04GRKtv-6">
          <mxGeometry relative="1" as="geometry" />
        </mxCell>
        <mxCell id="cW1qeq2i-bKWI04GRKtv-4" value="&lt;font style=&quot;font-size: 20px;&quot;&gt;conv2D_3x3&lt;/font&gt;" style="rounded=1;whiteSpace=wrap;html=1;fillColor=#ffe6cc;strokeColor=#d79b00;" vertex="1" parent="1">
          <mxGeometry x="140" y="260" width="120" height="60" as="geometry" />
        </mxCell>
        <mxCell id="cW1qeq2i-bKWI04GRKtv-17" style="edgeStyle=orthogonalEdgeStyle;rounded=0;orthogonalLoop=1;jettySize=auto;html=1;entryX=0;entryY=0.5;entryDx=0;entryDy=0;fontSize=20;" edge="1" parent="1" source="cW1qeq2i-bKWI04GRKtv-6" target="cW1qeq2i-bKWI04GRKtv-16">
          <mxGeometry relative="1" as="geometry">
            <Array as="points">
              <mxPoint x="200" y="425" />
            </Array>
          </mxGeometry>
        </mxCell>
        <mxCell id="cW1qeq2i-bKWI04GRKtv-6" value="&lt;font style=&quot;font-size: 20px;&quot;&gt;conv2D_3x3&lt;/font&gt;" style="rounded=1;whiteSpace=wrap;html=1;fillColor=#ffe6cc;strokeColor=#d79b00;" vertex="1" parent="1">
          <mxGeometry x="140" y="340" width="120" height="60" as="geometry" />
        </mxCell>
        <mxCell id="cW1qeq2i-bKWI04GRKtv-14" style="edgeStyle=orthogonalEdgeStyle;rounded=0;orthogonalLoop=1;jettySize=auto;html=1;fontSize=20;" edge="1" parent="1" source="cW1qeq2i-bKWI04GRKtv-7" target="cW1qeq2i-bKWI04GRKtv-11">
          <mxGeometry relative="1" as="geometry" />
        </mxCell>
        <mxCell id="cW1qeq2i-bKWI04GRKtv-7" value="&lt;font style=&quot;font-size: 20px;&quot;&gt;conv2D_1x1&lt;/font&gt;" style="rounded=1;whiteSpace=wrap;html=1;fillColor=#fff2cc;strokeColor=#d6b656;" vertex="1" parent="1">
          <mxGeometry x="280" y="180" width="120" height="60" as="geometry" />
        </mxCell>
        <mxCell id="cW1qeq2i-bKWI04GRKtv-19" style="edgeStyle=orthogonalEdgeStyle;rounded=0;orthogonalLoop=1;jettySize=auto;html=1;fontSize=20;" edge="1" parent="1" source="cW1qeq2i-bKWI04GRKtv-8" target="cW1qeq2i-bKWI04GRKtv-16">
          <mxGeometry relative="1" as="geometry">
            <Array as="points">
              <mxPoint x="480" y="360" />
              <mxPoint x="410" y="360" />
            </Array>
          </mxGeometry>
        </mxCell>
        <mxCell id="cW1qeq2i-bKWI04GRKtv-8" value="&lt;font style=&quot;font-size: 20px;&quot;&gt;conv2D_1x1&lt;/font&gt;" style="rounded=1;whiteSpace=wrap;html=1;fillColor=#fff2cc;strokeColor=#d6b656;" vertex="1" parent="1">
          <mxGeometry x="420" y="180" width="120" height="60" as="geometry" />
        </mxCell>
        <mxCell id="cW1qeq2i-bKWI04GRKtv-20" style="edgeStyle=orthogonalEdgeStyle;rounded=0;orthogonalLoop=1;jettySize=auto;html=1;entryX=1;entryY=0.5;entryDx=0;entryDy=0;fontSize=20;" edge="1" parent="1" source="cW1qeq2i-bKWI04GRKtv-9" target="cW1qeq2i-bKWI04GRKtv-16">
          <mxGeometry relative="1" as="geometry">
            <Array as="points">
              <mxPoint x="620" y="425" />
            </Array>
          </mxGeometry>
        </mxCell>
        <mxCell id="cW1qeq2i-bKWI04GRKtv-9" value="&lt;font style=&quot;font-size: 20px;&quot;&gt;conv2D_1x1&lt;/font&gt;" style="rounded=1;whiteSpace=wrap;html=1;fillColor=#fff2cc;strokeColor=#d6b656;" vertex="1" parent="1">
          <mxGeometry x="560" y="260" width="120" height="60" as="geometry" />
        </mxCell>
        <mxCell id="cW1qeq2i-bKWI04GRKtv-28" style="edgeStyle=orthogonalEdgeStyle;rounded=0;orthogonalLoop=1;jettySize=auto;html=1;entryX=0.5;entryY=0;entryDx=0;entryDy=0;fontSize=20;endArrow=classic;endFill=1;" edge="1" parent="1" source="cW1qeq2i-bKWI04GRKtv-10" target="cW1qeq2i-bKWI04GRKtv-9">
          <mxGeometry relative="1" as="geometry" />
        </mxCell>
        <mxCell id="cW1qeq2i-bKWI04GRKtv-10" value="&lt;font style=&quot;font-size: 20px;&quot;&gt;max_pool&lt;/font&gt;" style="rounded=1;whiteSpace=wrap;html=1;fillColor=#f8cecc;strokeColor=#b85450;" vertex="1" parent="1">
          <mxGeometry x="560" y="180" width="120" height="60" as="geometry" />
        </mxCell>
        <mxCell id="cW1qeq2i-bKWI04GRKtv-18" style="edgeStyle=orthogonalEdgeStyle;rounded=0;orthogonalLoop=1;jettySize=auto;html=1;entryX=0.5;entryY=0;entryDx=0;entryDy=0;fontSize=20;" edge="1" parent="1" source="cW1qeq2i-bKWI04GRKtv-11" target="cW1qeq2i-bKWI04GRKtv-16">
          <mxGeometry relative="1" as="geometry">
            <Array as="points">
              <mxPoint x="340" y="360" />
              <mxPoint x="410" y="360" />
            </Array>
          </mxGeometry>
        </mxCell>
        <mxCell id="cW1qeq2i-bKWI04GRKtv-11" value="&lt;font style=&quot;font-size: 20px;&quot;&gt;conv2D_3x3&lt;/font&gt;" style="rounded=1;whiteSpace=wrap;html=1;fillColor=#ffe6cc;strokeColor=#d79b00;" vertex="1" parent="1">
          <mxGeometry x="280" y="260" width="120" height="60" as="geometry" />
        </mxCell>
        <mxCell id="cW1qeq2i-bKWI04GRKtv-30" style="edgeStyle=orthogonalEdgeStyle;rounded=0;orthogonalLoop=1;jettySize=auto;html=1;fontSize=20;endArrow=classic;endFill=1;" edge="1" parent="1" source="cW1qeq2i-bKWI04GRKtv-16">
          <mxGeometry relative="1" as="geometry">
            <mxPoint x="410" y="460" as="targetPoint" />
          </mxGeometry>
        </mxCell>
        <mxCell id="cW1qeq2i-bKWI04GRKtv-16" value="concat" style="ellipse;whiteSpace=wrap;html=1;fontSize=20;fillColor=#d5e8d4;strokeColor=#82b366;" vertex="1" parent="1">
          <mxGeometry x="375" y="410" width="70" height="30" as="geometry" />
        </mxCell>
        <mxCell id="cW1qeq2i-bKWI04GRKtv-22" style="edgeStyle=orthogonalEdgeStyle;rounded=0;orthogonalLoop=1;jettySize=auto;html=1;entryX=0.5;entryY=0;entryDx=0;entryDy=0;fontSize=20;" edge="1" parent="1" target="cW1qeq2i-bKWI04GRKtv-7">
          <mxGeometry relative="1" as="geometry">
            <mxPoint x="410" y="120" as="sourcePoint" />
            <Array as="points">
              <mxPoint x="410" y="140" />
              <mxPoint x="340" y="140" />
            </Array>
          </mxGeometry>
        </mxCell>
        <mxCell id="cW1qeq2i-bKWI04GRKtv-23" style="edgeStyle=orthogonalEdgeStyle;rounded=0;orthogonalLoop=1;jettySize=auto;html=1;fontSize=20;" edge="1" parent="1" target="cW1qeq2i-bKWI04GRKtv-3">
          <mxGeometry relative="1" as="geometry">
            <mxPoint x="410" y="120" as="sourcePoint" />
            <Array as="points">
              <mxPoint x="410" y="140" />
              <mxPoint x="200" y="140" />
            </Array>
          </mxGeometry>
        </mxCell>
        <mxCell id="cW1qeq2i-bKWI04GRKtv-24" style="edgeStyle=orthogonalEdgeStyle;rounded=0;orthogonalLoop=1;jettySize=auto;html=1;entryX=0.5;entryY=0;entryDx=0;entryDy=0;fontSize=20;" edge="1" parent="1" target="cW1qeq2i-bKWI04GRKtv-8">
          <mxGeometry relative="1" as="geometry">
            <mxPoint x="410" y="120" as="sourcePoint" />
            <Array as="points">
              <mxPoint x="410" y="140" />
              <mxPoint x="480" y="140" />
            </Array>
          </mxGeometry>
        </mxCell>
        <mxCell id="cW1qeq2i-bKWI04GRKtv-25" style="edgeStyle=orthogonalEdgeStyle;rounded=0;orthogonalLoop=1;jettySize=auto;html=1;entryX=0.5;entryY=0;entryDx=0;entryDy=0;fontSize=20;" edge="1" parent="1" target="cW1qeq2i-bKWI04GRKtv-10">
          <mxGeometry relative="1" as="geometry">
            <mxPoint x="410" y="120" as="sourcePoint" />
            <Array as="points">
              <mxPoint x="410" y="140" />
              <mxPoint x="620" y="140" />
            </Array>
          </mxGeometry>
        </mxCell>
      </root>
    </mxGraphModel>
  </diagram>
</mxfile>
